HIERARCHY
ROOT Hips
{
	OFFSET -0.001795 -0.223333 0.028219
	CHANNELS 6 Xposition Yposition Zposition Zrotation Yrotation Xrotation 
	JOINT LeftUpLeg
	{
		OFFSET 0.069520 -0.091406 -0.006815
		CHANNELS 3 Zrotation Yrotation Xrotation
		JOINT LeftLeg
		{
			OFFSET 0.034277 -0.375199 -0.004496
			CHANNELS 3 Zrotation Yrotation Xrotation
			JOINT LeftFoot
			{
				OFFSET -0.013596 -0.397961 -0.043693
				CHANNELS 3 Zrotation Yrotation Xrotation
				JOINT LeftToe
				{
					OFFSET 0.026358 -0.055791 0.119288
					CHANNELS 3 Zrotation Yrotation Xrotation
					End Site
					{
						OFFSET 0.000000 0.000000 0.000000
					}
				}
			}
		}
	}
	JOINT RightUpLeg
	{
		OFFSET -0.067670 -0.090522 -0.004320
		CHANNELS 3 Zrotation Yrotation Xrotation
		JOINT RightLeg
		{
			OFFSET -0.038290 -0.382569 -0.008850
			CHANNELS 3 Zrotation Yrotation Xrotation
			JOINT RightFoot
			{
				OFFSET 0.015774 -0.398415 -0.042312
				CHANNELS 3 Zrotation Yrotation Xrotation
				JOINT RightToe
				{
					OFFSET -0.025372 -0.048144 0.123348
					CHANNELS 3 Zrotation Yrotation Xrotation
					End Site
					{
						OFFSET 0.000000 0.000000 0.000000
					}
				}
			}
		}
	}
	JOINT Spine
	{
		OFFSET -0.002533 0.108963 -0.026696
		CHANNELS 3 Zrotation Yrotation Xrotation
		JOINT Spine1
		{
			OFFSET 0.005487 0.135180 0.001092
			CHANNELS 3 Zrotation Yrotation Xrotation
			JOINT Spine2
			{
				OFFSET 0.001457 0.052922 0.025425
				CHANNELS 3 Zrotation Yrotation Xrotation
				JOINT Neck
				{
					OFFSET -0.002778 0.213870 -0.042857
					CHANNELS 3 Zrotation Yrotation Xrotation
					JOINT Head
					{
						OFFSET 0.005152 0.064970 0.051349
						CHANNELS 3 Zrotation Yrotation Xrotation
						End Site
						{
							OFFSET 0.000000 0.000000 0.000000
						}
					}
				}
				JOINT LeftShoulder
				{
					OFFSET 0.078845 0.121749 -0.034090
					CHANNELS 3 Zrotation Yrotation Xrotation
					JOINT LeftArm
					{
						OFFSET 0.090977 0.030469 -0.008868
						CHANNELS 3 Zrotation Yrotation Xrotation
						JOINT LeftForeArm
						{
							OFFSET 0.259612 -0.012772 -0.027456
							CHANNELS 3 Zrotation Yrotation Xrotation
							JOINT LeftHand
							{
								OFFSET 0.249234 0.008986 -0.001171
								CHANNELS 3 Zrotation Yrotation Xrotation
								End Site
								{
									OFFSET 0.000000 0.000000 0.000000
								}
							}
						}
					}
				}
				JOINT RightShoulder
				{
					OFFSET -0.081759 0.118833 -0.038615
					CHANNELS 3 Zrotation Yrotation Xrotation
					JOINT RightArm
					{
						OFFSET -0.096012 0.032551 -0.009143
						CHANNELS 3 Zrotation Yrotation Xrotation
						JOINT RightForeArm
						{
							OFFSET -0.253742 -0.013329 -0.021401
							CHANNELS 3 Zrotation Yrotation Xrotation
							JOINT RightHand
							{
								OFFSET -0.255298 0.007772 -0.005559
								CHANNELS 3 Zrotation Yrotation Xrotation
								End Site
								{
									OFFSET 0.000000 0.000000 0.000000
								}
							}
						}
					}
				}
			}
		}
	}
}
MOTION
Frames: 5
Frame Time: 0.050000
-0.326652 0.924740 -0.061077 10.595004 -73.731320 -1.242880 10.240817 4.020324 -11.935292 -9.919574 5.833088 9.069730 25.344649 36.325592 19.934163 0.000000 0.000000 0.000000 -15.657419 6.825837 -30.465862 15.550243 2.368635 12.102695 -44.916298 -45.936102 45.458375 0.000000 0.000000 0.000000 7.749346 0.827567 19.295738 6.758093 -0.657329 2.145177 -10.303518 -8.999326 9.363582 0.407935 -3.806264 -25.403767 0.000000 0.000000 0.000000 -32.671760 -21.781854 32.671039 -12.627275 -37.486705 -2.793348 27.223933 -57.160551 -12.403433 0.000000 0.000000 0.000000 25.390804 11.644282 -14.399687 40.477691 -22.955639 -7.266939 24.858398 73.511817 10.458628 0.000000 0.000000 0.000000 
-0.312769 0.929322 -0.038774 4.568167 -68.314533 2.399850 10.192725 3.078131 -9.384093 -10.005008 3.912121 2.902417 26.666399 38.641504 20.945035 0.000000 0.000000 0.000000 -13.984609 5.144169 -25.969271 13.094294 1.725139 11.494015 -38.444160 -43.724208 39.162461 0.000000 0.000000 0.000000 7.125128 0.368059 17.422417 5.941627 -0.698069 2.723563 -10.046256 -5.457136 8.968561 2.703029 -4.322659 -23.695693 0.000000 0.000000 0.000000 -32.429422 -20.479826 28.679863 -17.068566 -32.818337 -2.007536 16.397697 -58.529075 -6.136984 0.000000 0.000000 0.000000 27.310021 10.791351 -13.002402 41.564277 -23.496051 -8.018169 26.730241 70.934681 12.372375 0.000000 0.000000 0.000000 
-0.296554 0.930706 -0.016070 1.687591 -64.080990 3.724782 10.251535 2.798724 -9.380877 -10.051160 3.613870 2.405487 26.199657 38.311630 20.717813 0.000000 0.000000 0.000000 -13.187483 4.361085 -23.865854 12.197531 1.399873 11.666445 -35.739058 -42.914461 37.235905 0.000000 0.000000 0.000000 6.764995 0.128166 16.381390 4.306551 -0.410108 2.808734 -9.327161 -3.457284 8.854295 2.551243 -3.927127 -22.340786 0.000000 0.000000 0.000000 -33.712857 -18.539706 26.293294 -17.647553 -29.162362 -2.163836 10.903334 -59.128155 -3.119686 0.000000 0.000000 0.000000 29.520465 9.736158 -12.810706 41.129347 -23.510721 -7.972056 32.033944 68.293856 16.363034 0.000000 0.000000 0.000000 
-0.279127 0.930479 0.006525 -0.494427 -60.212258 4.843806 9.948761 2.357504 -8.827159 -10.170922 3.246163 1.002794 24.089648 37.565838 17.557445 0.000000 0.000000 0.000000 -13.482641 3.949606 -22.712396 12.674252 1.222166 12.641397 -35.582203 -43.572644 36.762732 0.000000 0.000000 0.000000 6.336407 -0.107037 14.857083 2.989598 0.032759 3.496283 -8.441229 -1.794555 7.933732 1.868538 -3.147514 -21.360219 0.000000 0.000000 0.000000 -33.338582 -16.699663 22.905507 -20.276254 -26.048548 -1.942399 2.311843 -60.115908 2.116530 0.000000 0.000000 0.000000 31.180501 9.343458 -11.749862 40.480196 -23.259165 -7.915305 40.507817 66.489169 22.442392 0.000000 0.000000 0.000000 
-0.262064 0.930129 0.028302 -1.538908 -56.032146 4.640085 9.670986 2.090884 -9.546861 -10.370923 3.451040 3.077163 22.826090 36.738941 15.944261 0.000000 0.000000 0.000000 -13.469591 3.619383 -22.205765 13.346949 1.112574 15.436272 -33.920258 -44.102618 34.110688 0.000000 0.000000 0.000000 5.788999 -0.157804 14.797633 1.735560 0.361873 3.616694 -7.897686 -0.460990 7.317270 1.215118 -2.401986 -20.378992 0.000000 0.000000 0.000000 -33.749736 -15.793250 20.835615 -21.106938 -21.412620 -2.232302 -5.969471 -64.001199 7.634479 0.000000 0.000000 0.000000 33.404170 8.002666 -11.581941 38.474296 -22.323295 -7.212058 48.884096 64.291244 28.051629 0.000000 0.000000 0.000000 
